<svg class="active" width="100" height="36" viewBox="0 0 100 36" fill="none" xmlns="http://www.w3.org/2000/svg"><rect x="0.5" y="0.5" width="99" height="35" rx="4.5" fill="#0C0E12"/><rect x="0.5" y="0.5" width="99" height="35" rx="4.5" stroke="#373A41"/><circle cx="13" cy="18" r="3" fill="#17B26A"/><path d="M28.642 23.5H26.392L30.4886 11.8636H33.0909L37.1932 23.5H34.9432L31.8352 14.25H31.7443L28.642 23.5ZM28.7159 18.9375H34.8523V20.6307H28.7159V18.9375ZM42.1761 23.6705C41.3049 23.6705 40.5568 23.4792 39.9318 23.0966C39.3106 22.714 38.8314 22.1856 38.4943 21.5114C38.161 20.8333 37.9943 20.053 37.9943 19.1705C37.9943 18.2841 38.1648 17.5019 38.5057 16.8239C38.8466 16.142 39.3277 15.6117 39.9489 15.233C40.5739 14.8504 41.3125 14.6591 42.1648 14.6591C42.8731 14.6591 43.5 14.7898 44.0455 15.0511C44.5947 15.3087 45.0322 15.6742 45.358 16.1477C45.6837 16.6174 45.8693 17.1667 45.9148 17.7955H43.9489C43.8693 17.375 43.6799 17.0246 43.3807 16.7443C43.0852 16.4602 42.6894 16.3182 42.1932 16.3182C41.7727 16.3182 41.4034 16.4318 41.0852 16.6591C40.767 16.8826 40.5189 17.2045 40.3409 17.625C40.1667 18.0455 40.0795 18.5492 40.0795 19.1364C40.0795 19.7311 40.1667 20.2424 40.3409 20.6705C40.5152 21.0947 40.7595 21.4223 41.0739 21.6534C41.392 21.8807 41.7652 21.9943 42.1932 21.9943C42.4962 21.9943 42.767 21.9375 43.0057 21.8239C43.2481 21.7064 43.4508 21.5379 43.6136 21.3182C43.7765 21.0985 43.8883 20.8314 43.9489 20.517H45.9148C45.8655 21.1345 45.6837 21.6818 45.3693 22.1591C45.0549 22.6326 44.6269 23.0038 44.0852 23.2727C43.5436 23.5379 42.9072 23.6705 42.1761 23.6705ZM51.9616 14.7727V16.3636H46.9446V14.7727H51.9616ZM48.1832 12.6818H50.2401V20.875C50.2401 21.1515 50.2817 21.3636 50.3651 21.5114C50.4522 21.6553 50.5658 21.7538 50.706 21.8068C50.8461 21.8598 51.0014 21.8864 51.1719 21.8864C51.3007 21.8864 51.4181 21.8769 51.5241 21.858C51.634 21.839 51.7173 21.822 51.7741 21.8068L52.1207 23.4148C52.0109 23.4527 51.8537 23.4943 51.6491 23.5398C51.4484 23.5852 51.2022 23.6117 50.9105 23.6193C50.3954 23.6345 49.9313 23.5568 49.5185 23.3864C49.1056 23.2121 48.7779 22.9432 48.5355 22.5795C48.2969 22.2159 48.1795 21.7614 48.1832 21.2159V12.6818ZM53.6818 23.5V14.7727H55.7386V23.5H53.6818ZM54.7159 13.5341C54.3902 13.5341 54.1098 13.4261 53.875 13.2102C53.6402 12.9905 53.5227 12.7273 53.5227 12.4205C53.5227 12.1098 53.6402 11.8466 53.875 11.6307C54.1098 11.411 54.3902 11.3011 54.7159 11.3011C55.0455 11.3011 55.3258 11.411 55.5568 11.6307C55.7917 11.8466 55.9091 12.1098 55.9091 12.4205C55.9091 12.7273 55.7917 12.9905 55.5568 13.2102C55.3258 13.4261 55.0455 13.5341 54.7159 13.5341ZM65.6491 14.7727L62.5412 23.5H60.2685L57.1605 14.7727H59.3537L61.3594 21.2557H61.4503L63.4616 14.7727H65.6491ZM70.6392 23.6705C69.7642 23.6705 69.0085 23.4886 68.3722 23.125C67.7396 22.7576 67.2528 22.2386 66.9119 21.5682C66.571 20.8939 66.4006 20.1004 66.4006 19.1875C66.4006 18.2898 66.571 17.5019 66.9119 16.8239C67.2566 16.142 67.7377 15.6117 68.3551 15.233C68.9725 14.8504 69.6979 14.6591 70.5312 14.6591C71.0691 14.6591 71.5767 14.7462 72.054 14.9205C72.535 15.0909 72.9593 15.3561 73.3267 15.7159C73.6979 16.0758 73.9896 16.5341 74.2017 17.0909C74.4138 17.6439 74.5199 18.303 74.5199 19.0682V19.6989H67.3665V18.3125H72.5483C72.5445 17.9186 72.4593 17.5682 72.2926 17.2614C72.1259 16.9508 71.893 16.7064 71.5938 16.5284C71.2983 16.3504 70.9536 16.2614 70.5597 16.2614C70.1392 16.2614 69.7699 16.3636 69.4517 16.5682C69.1335 16.7689 68.8854 17.0341 68.7074 17.3636C68.5331 17.6894 68.4441 18.0473 68.4403 18.4375V19.6477C68.4403 20.1553 68.5331 20.5909 68.7188 20.9545C68.9044 21.3144 69.1638 21.5909 69.4972 21.7841C69.8305 21.9735 70.2206 22.0682 70.6676 22.0682C70.9669 22.0682 71.2377 22.0265 71.4801 21.9432C71.7225 21.8561 71.9328 21.7292 72.1108 21.5625C72.2888 21.3958 72.4233 21.1894 72.5142 20.9432L74.4347 21.1591C74.3134 21.6667 74.0824 22.1098 73.7415 22.4886C73.4044 22.8636 72.9725 23.1553 72.446 23.3636C71.9195 23.5682 71.3172 23.6705 70.6392 23.6705Z" fill="#CECFD2"/></svg>