<svg class="inactive" width="100" height="36" viewBox="0 0 100 36" fill="none" xmlns="http://www.w3.org/2000/svg"><rect x="0.5" y="0.5" width="99" height="35" rx="4.5" fill="#0C0E12"/><rect x="0.5" y="0.5" width="99" height="35" rx="4.5" stroke="#373A41"/><circle cx="13" cy="18" r="3" fill="#F04438"/><path d="M29.2557 11.8636V23.5H27.1477V11.8636H29.2557ZM33.5043 18.3864V23.5H31.4474V14.7727H33.4134V16.2557H33.5156C33.7164 15.767 34.0365 15.3788 34.4759 15.0909C34.919 14.803 35.4664 14.6591 36.1179 14.6591C36.7202 14.6591 37.2448 14.7879 37.6918 15.0455C38.1425 15.303 38.491 15.6761 38.7372 16.1648C38.9872 16.6534 39.1103 17.2462 39.1065 17.9432V23.5H37.0497V18.2614C37.0497 17.678 36.8982 17.2216 36.5952 16.892C36.2959 16.5625 35.8812 16.3977 35.3509 16.3977C34.991 16.3977 34.6709 16.4773 34.3906 16.6364C34.1141 16.7917 33.8963 17.017 33.7372 17.3125C33.5819 17.608 33.5043 17.9659 33.5043 18.3864ZM43.7088 23.6761C43.1558 23.6761 42.6577 23.5777 42.2145 23.3807C41.7751 23.1799 41.4266 22.8845 41.169 22.4943C40.9152 22.1042 40.7884 21.6231 40.7884 21.0511C40.7884 20.5587 40.8793 20.1515 41.0611 19.8295C41.2429 19.5076 41.491 19.25 41.8054 19.0568C42.1198 18.8636 42.474 18.7178 42.8679 18.6193C43.2656 18.517 43.6766 18.4432 44.1009 18.3977C44.6122 18.3447 45.027 18.2973 45.3452 18.2557C45.6634 18.2102 45.8944 18.142 46.0384 18.0511C46.1861 17.9564 46.2599 17.8106 46.2599 17.6136V17.5795C46.2599 17.1515 46.133 16.8201 45.8793 16.5852C45.6255 16.3504 45.2599 16.233 44.7827 16.233C44.2789 16.233 43.8793 16.3428 43.5838 16.5625C43.2921 16.7822 43.0952 17.0417 42.9929 17.3409L41.0724 17.0682C41.224 16.5379 41.474 16.0947 41.8224 15.7386C42.1709 15.3788 42.5971 15.1098 43.1009 14.9318C43.6046 14.75 44.1615 14.6591 44.7713 14.6591C45.1918 14.6591 45.6103 14.7083 46.027 14.8068C46.4437 14.9053 46.8243 15.0682 47.169 15.2955C47.5137 15.5189 47.7902 15.8239 47.9986 16.2102C48.2107 16.5966 48.3168 17.0795 48.3168 17.6591V23.5H46.3395V22.3011H46.2713C46.1463 22.5436 45.9702 22.7708 45.7429 22.983C45.5194 23.1913 45.2372 23.3598 44.8963 23.4886C44.5592 23.6136 44.1634 23.6761 43.7088 23.6761ZM44.2429 22.1648C44.6558 22.1648 45.0137 22.0833 45.3168 21.9205C45.6198 21.7538 45.8527 21.5341 46.0156 21.2614C46.1823 20.9886 46.2656 20.6913 46.2656 20.3693V19.3409C46.2012 19.3939 46.0914 19.4432 45.9361 19.4886C45.7846 19.5341 45.6141 19.5739 45.4247 19.608C45.2353 19.642 45.0478 19.6723 44.8622 19.6989C44.6766 19.7254 44.5156 19.7481 44.3793 19.767C44.0724 19.8087 43.7978 19.8769 43.5554 19.9716C43.313 20.0663 43.1217 20.1989 42.9815 20.3693C42.8414 20.536 42.7713 20.7519 42.7713 21.017C42.7713 21.3958 42.9096 21.6818 43.1861 21.875C43.4626 22.0682 43.8149 22.1648 44.2429 22.1648ZM54.1918 23.6705C53.3205 23.6705 52.5724 23.4792 51.9474 23.0966C51.3262 22.714 50.8471 22.1856 50.5099 21.5114C50.1766 20.8333 50.0099 20.053 50.0099 19.1705C50.0099 18.2841 50.1804 17.5019 50.5213 16.8239C50.8622 16.142 51.3433 15.6117 51.9645 15.233C52.5895 14.8504 53.3281 14.6591 54.1804 14.6591C54.8887 14.6591 55.5156 14.7898 56.0611 15.0511C56.6103 15.3087 57.0478 15.6742 57.3736 16.1477C57.6993 16.6174 57.8849 17.1667 57.9304 17.7955H55.9645C55.8849 17.375 55.6955 17.0246 55.3963 16.7443C55.1009 16.4602 54.705 16.3182 54.2088 16.3182C53.7884 16.3182 53.419 16.4318 53.1009 16.6591C52.7827 16.8826 52.5346 17.2045 52.3565 17.625C52.1823 18.0455 52.0952 18.5492 52.0952 19.1364C52.0952 19.7311 52.1823 20.2424 52.3565 20.6705C52.5308 21.0947 52.7751 21.4223 53.0895 21.6534C53.4077 21.8807 53.7808 21.9943 54.2088 21.9943C54.5118 21.9943 54.7827 21.9375 55.0213 21.8239C55.2637 21.7064 55.4664 21.5379 55.6293 21.3182C55.7921 21.0985 55.9039 20.8314 55.9645 20.517H57.9304C57.8812 21.1345 57.6993 21.6818 57.3849 22.1591C57.0705 22.6326 56.6425 23.0038 56.1009 23.2727C55.5592 23.5379 54.9228 23.6705 54.1918 23.6705ZM63.9773 14.7727V16.3636H58.9602V14.7727H63.9773ZM60.1989 12.6818H62.2557V20.875C62.2557 21.1515 62.2973 21.3636 62.3807 21.5114C62.4678 21.6553 62.5814 21.7538 62.7216 21.8068C62.8617 21.8598 63.017 21.8864 63.1875 21.8864C63.3163 21.8864 63.4337 21.8769 63.5398 21.858C63.6496 21.839 63.733 21.822 63.7898 21.8068L64.1364 23.4148C64.0265 23.4527 63.8693 23.4943 63.6648 23.5398C63.464 23.5852 63.2178 23.6117 62.9261 23.6193C62.411 23.6345 61.947 23.5568 61.5341 23.3864C61.1212 23.2121 60.7936 22.9432 60.5511 22.5795C60.3125 22.2159 60.1951 21.7614 60.1989 21.2159V12.6818ZM65.6974 23.5V14.7727H67.7543V23.5H65.6974ZM66.7315 13.5341C66.4058 13.5341 66.1255 13.4261 65.8906 13.2102C65.6558 12.9905 65.5384 12.7273 65.5384 12.4205C65.5384 12.1098 65.6558 11.8466 65.8906 11.6307C66.1255 11.411 66.4058 11.3011 66.7315 11.3011C67.0611 11.3011 67.3414 11.411 67.5724 11.6307C67.8073 11.8466 67.9247 12.1098 67.9247 12.4205C67.9247 12.7273 67.8073 12.9905 67.5724 13.2102C67.3414 13.4261 67.0611 13.5341 66.7315 13.5341ZM77.6648 14.7727L74.5568 23.5H72.2841L69.1761 14.7727H71.3693L73.375 21.2557H73.4659L75.4773 14.7727H77.6648ZM82.6548 23.6705C81.7798 23.6705 81.0241 23.4886 80.3878 23.125C79.7552 22.7576 79.2685 22.2386 78.9276 21.5682C78.5866 20.8939 78.4162 20.1004 78.4162 19.1875C78.4162 18.2898 78.5866 17.5019 78.9276 16.8239C79.2723 16.142 79.7533 15.6117 80.3707 15.233C80.9882 14.8504 81.7135 14.6591 82.5469 14.6591C83.0848 14.6591 83.5923 14.7462 84.0696 14.9205C84.5507 15.0909 84.9749 15.3561 85.3423 15.7159C85.7135 16.0758 86.0052 16.5341 86.2173 17.0909C86.4295 17.6439 86.5355 18.303 86.5355 19.0682V19.6989H79.3821V18.3125H84.5639C84.5601 17.9186 84.4749 17.5682 84.3082 17.2614C84.1416 16.9508 83.9086 16.7064 83.6094 16.5284C83.3139 16.3504 82.9692 16.2614 82.5753 16.2614C82.1548 16.2614 81.7855 16.3636 81.4673 16.5682C81.1491 16.7689 80.901 17.0341 80.723 17.3636C80.5488 17.6894 80.4598 18.0473 80.456 18.4375V19.6477C80.456 20.1553 80.5488 20.5909 80.7344 20.9545C80.92 21.3144 81.1795 21.5909 81.5128 21.7841C81.8461 21.9735 82.2363 22.0682 82.6832 22.0682C82.9825 22.0682 83.2533 22.0265 83.4957 21.9432C83.7382 21.8561 83.9484 21.7292 84.1264 21.5625C84.3045 21.3958 84.4389 21.1894 84.5298 20.9432L86.4503 21.1591C86.3291 21.6667 86.098 22.1098 85.7571 22.4886C85.42 22.8636 84.9882 23.1553 84.4616 23.3636C83.9351 23.5682 83.3329 23.6705 82.6548 23.6705Z" fill="#CECFD2"/></svg>